# 3ds Max Wavefront OBJ Exporter v0.97b - (c)2007 guruware
# File Created: 24.02.2026 22:59:46

mtllib esp_stopper.mtl

#
# object Box78
#

v  -9.0000 48.1013 8.1820
v  -9.0000 48.1089 3.6821
v  -7.9924 48.1089 3.6821
v  -7.9924 48.1013 8.1820
v  -7.9924 47.1013 8.1804
v  -7.9924 47.1089 3.6804
v  7.9835 47.1089 3.6804
v  7.9835 47.1013 8.1804
v  7.9835 48.1013 8.1820
v  7.9835 48.1089 3.6821
v  9.0000 48.1089 3.6821
v  9.0000 48.1013 8.1820
v  -9.0000 49.7013 8.1847
v  -7.9924 49.7013 8.1847
v  -7.9924 49.7089 3.6847
v  -9.0000 49.7089 3.6847
v  -7.9924 50.7013 8.1864
v  7.9835 50.7013 8.1864
v  7.9835 50.7089 3.6864
v  -7.9924 50.7089 3.6864
v  7.9835 49.7013 8.1847
v  9.0000 49.7013 8.1847
v  9.0000 49.7089 3.6847
v  7.9835 49.7089 3.6847
# 24 vertices

vn 0.0000 -1.0000 -0.0017
vn 0.0000 1.0000 0.0017
vn -0.0000 1.0000 0.0017
vn 0.0000 -0.0017 1.0000
vn -0.0000 -0.0017 1.0000
vn 1.0000 0.0000 -0.0000
vn 0.0000 0.0017 -1.0000
vn -1.0000 0.0000 -0.0000
# 8 vertex normals

vt 1.0000 0.0000 0.0000
vt 1.0000 1.0000 0.0000
vt 0.6667 1.0000 0.0000
vt 0.6667 0.0000 0.0000
vt 0.3333 1.0000 0.0000
vt 0.3333 0.0000 0.0000
vt 0.0000 1.0000 0.0000
vt 0.0000 0.0000 0.0000
# 8 texture coords

g Box78
usemtl 02___Default
s 2
f 1/1/1 2/2/1 3/3/1 
f 3/3/1 4/4/1 1/1/1 
f 5/4/1 6/3/1 7/5/1 
f 7/5/1 8/6/1 5/4/1 
f 9/6/1 10/5/1 11/7/1 
f 11/7/1 12/8/1 9/6/1 
s 4
f 13/8/2 14/6/2 15/5/2 
f 15/5/2 16/7/2 13/8/2 
f 17/6/2 18/4/2 19/3/2 
f 19/3/2 20/5/2 17/6/2 
f 21/4/3 22/1/3 23/2/3 
f 23/2/3 24/3/3 21/4/3 
s 8
f 1/8/4 4/6/4 14/5/4 
f 14/5/4 13/7/4 1/8/4 
f 4/6/4 9/4/5 21/3/5 
f 21/3/5 14/5/4 4/6/4 
f 9/4/5 12/1/5 22/2/5 
f 22/2/5 21/3/5 9/4/5 
s 16
f 12/8/6 11/1/6 23/2/6 
f 23/2/6 22/7/6 12/8/6 
s 32
f 11/8/7 10/6/7 24/5/7 
f 24/5/7 23/7/7 11/8/7 
f 10/6/7 3/4/7 15/3/7 
f 15/3/7 24/5/7 10/6/7 
f 3/4/7 2/1/7 16/2/7 
f 16/2/7 15/3/7 3/4/7 
s 64
f 2/8/8 1/1/8 13/2/8 
f 13/2/8 16/7/8 2/8/8 
s off
f 4/4/8 3/3/8 6/3/8 
f 6/3/8 5/4/8 4/4/8 
f 3/3/7 10/5/7 7/5/7 
f 7/5/7 6/3/7 3/3/7 
f 10/5/6 9/6/6 8/6/6 
f 8/6/6 7/5/6 10/5/6 
f 9/6/4 4/4/4 5/4/4 
f 5/4/4 8/6/4 9/6/4 
f 15/5/8 14/6/8 17/6/8 
f 17/6/8 20/5/8 15/5/8 
f 14/6/4 21/4/4 18/4/4 
f 18/4/4 17/6/4 14/6/4 
f 21/4/6 24/3/6 19/3/6 
f 19/3/6 18/4/6 21/4/6 
f 24/3/7 15/5/7 20/5/7 
f 20/5/7 19/3/7 24/3/7 
# 44 faces

